<?xml version="1.0" encoding="UTF-8" standalone="no"?>
<!-- Created with Inkscape (http://www.inkscape.org/) -->

<svg
   width="1024"
   height="1024"
   viewBox="0 0 270.93333 270.93334"
   version="1.1"
   id="svg914"
   inkscape:export-filename="/home/mguillon/icon_cardwallet.png"
   inkscape:export-xdpi="48.000004"
   inkscape:export-ydpi="48.000004"
   inkscape:version="1.1.2 (0a00cf5339, 2022-02-04)"
   sodipodi:docname="icon_cardwallet.svg"
   xmlns:inkscape="http://www.inkscape.org/namespaces/inkscape"
   xmlns:sodipodi="http://sodipodi.sourceforge.net/DTD/sodipodi-0.dtd"
   xmlns="http://www.w3.org/2000/svg"
   xmlns:svg="http://www.w3.org/2000/svg">
  <sodipodi:namedview
     id="namedview916"
     pagecolor="#ffffff"
     bordercolor="#666666"
     borderopacity="1.0"
     inkscape:pageshadow="2"
     inkscape:pageopacity="0.0"
     inkscape:pagecheckerboard="0"
     inkscape:document-units="mm"
     showgrid="false"
     units="px"
     fit-margin-top="0"
     fit-margin-left="0"
     fit-margin-right="0"
     fit-margin-bottom="0"
     inkscape:zoom="0.36703143"
     inkscape:cx="200.25533"
     inkscape:cy="821.45555"
     inkscape:window-width="1920"
     inkscape:window-height="999"
     inkscape:window-x="0"
     inkscape:window-y="0"
     inkscape:window-maximized="1"
     inkscape:current-layer="layer1" />
  <defs
     id="defs911" />
  <g
     inkscape:label="Layer 1"
     inkscape:groupmode="layer"
     id="layer1"
     transform="translate(-0.26636589,-0.37015253)">
    <rect
       style="fill:#da3d5c;fill-opacity:1;stroke-width:0"
       id="rect1152"
       width="270.93332"
       height="270.93332"
       x="0.19600862"
       y="0.20120823" />
    <g
       id="g1029"
       transform="matrix(0.92949737,0,0,0.92949737,-50.238804,-3.7594584)">
      <rect
         fill="#f56132"
         height="105.78"
         rx="10.35"
         transform="rotate(-13.11,186.71805,143.04895)"
         width="165.32001"
         x="104.02"
         y="90.129997"
         id="rect975" />
      <path
         d="m 125.9,212.21 a 11.37,11.37 0 0 1 -11.05,-8.77 L 95.55,120.57 A 11.36,11.36 0 0 1 104,106.94 L 244.88,74.13 a 11.36,11.36 0 0 1 13.63,8.48 l 19.3,82.87 a 11.33,11.33 0 0 1 -8.47,13.62 l -140.86,32.82 a 11.4,11.4 0 0 1 -2.58,0.29 z M 247.46,75.83 a 9.09,9.09 0 0 0 -2.12,0.25 l -140.86,32.81 a 9.34,9.34 0 0 0 -7,11.22 L 116.8,203 a 9.36,9.36 0 0 0 11.2,7 l 140.85,-32.81 a 9.35,9.35 0 0 0 7,-11.22 L 256.56,83.06 a 9.36,9.36 0 0 0 -9.1,-7.23 z"
         fill="#093f68"
         id="path977" />
      <path
         d="m 100.39,116.93 h 165.32 v 21.03 H 100.39 Z"
         fill="#093f68"
         transform="rotate(-13.11,183.08594,127.46546)"
         id="path979" />
      <path
         d="m 104.93,157.44 a 1,1 0 0 1 -1,-0.78 l -4.77,-20.48 a 1,1 0 0 1 0.12,-0.75 1,1 0 0 1 0.62,-0.45 l 161,-37.51 a 1,1 0 0 1 1.2,0.75 l 4.78,20.48 a 1,1 0 0 1 -0.13,0.76 1,1 0 0 1 -0.62,0.44 l -161,37.51 a 0.91,0.91 0 0 1 -0.2,0.03 z m -3.57,-20.74 4.32,18.53 159.06,-37 -4.32,-18.53 z"
         fill="#093f68"
         id="path981" />
      <rect
         fill="#68e1fd"
         height="105.78"
         rx="10.35"
         width="165.32001"
         x="138.42999"
         y="119.38"
         id="rect983" />
      <path
         d="M 293.4,226.17 H 148.77 a 11.36,11.36 0 0 1 -11.34,-11.35 v -85.09 a 11.36,11.36 0 0 1 11.34,-11.35 H 293.4 a 11.36,11.36 0 0 1 11.35,11.35 v 85.09 A 11.36,11.36 0 0 1 293.4,226.17 Z M 148.77,120.38 a 9.36,9.36 0 0 0 -9.34,9.35 v 85.09 a 9.35,9.35 0 0 0 9.34,9.35 H 293.4 a 9.35,9.35 0 0 0 9.35,-9.35 v -85.09 a 9.36,9.36 0 0 0 -9.35,-9.35 z"
         fill="#093f68"
         id="path985" />
      <circle
         cx="253.3"
         cy="154.17"
         fill="#ffbc0e"
         r="11.63"
         id="circle987" />
      <path
         d="m 253.3,166.8 a 12.63,12.63 0 1 1 12.62,-12.63 12.65,12.65 0 0 1 -12.62,12.63 z m 0,-23.25 a 10.63,10.63 0 1 0 10.62,10.62 10.64,10.64 0 0 0 -10.62,-10.62 z"
         fill="#093f68"
         id="path989" />
      <circle
         cx="271.45999"
         cy="154.17"
         fill="#f56132"
         r="11.63"
         id="circle991" />
      <g
         fill="#093f68"
         id="g1005">
        <path
           d="m 271.46,166.8 a 12.63,12.63 0 1 1 12.62,-12.63 12.65,12.65 0 0 1 -12.62,12.63 z m 0,-23.25 a 10.63,10.63 0 1 0 10.62,10.62 10.64,10.64 0 0 0 -10.62,-10.62 z"
           id="path993" />
        <path
           d="m 173.38,166.74 h -11.11 a 7.05,7.05 0 0 1 -7.05,-7 v -11.15 a 7,7 0 0 1 7.05,-7 h 11.11 a 7,7 0 0 1 7,7 v 11.11 a 7.05,7.05 0 0 1 -7,7.04 z m -11.11,-23.19 a 5,5 0 0 0 -5.05,5 v 11.15 a 5,5 0 0 0 5.05,5 h 11.11 a 5,5 0 0 0 5,-5 v -11.11 a 5,5 0 0 0 -5,-5 z"
           id="path995" />
        <path
           d="m 183.69,203 h -27.47 a 1,1 0 0 1 -1,-1 v -11.71 a 1,1 0 0 1 1,-1 h 27.47 a 1,1 0 0 1 1,1 V 202 a 1,1 0 0 1 -1,1 z m -26.47,-2 h 25.47 v -9.71 h -25.47 z"
           id="path997" />
        <path
           d="m 217.78,203 h -27.47 a 1,1 0 0 1 -1,-1 v -11.71 a 1,1 0 0 1 1,-1 h 27.47 a 1,1 0 0 1 1,1 V 202 a 1,1 0 0 1 -1,1 z m -26.47,-2 h 25.47 v -9.71 h -25.47 z"
           id="path999" />
        <path
           d="M 251.86,203 H 224.4 a 1,1 0 0 1 -1,-1 v -11.71 a 1,1 0 0 1 1,-1 h 27.46 a 1,1 0 0 1 1,1 V 202 a 1,1 0 0 1 -1,1 z m -26.46,-2 h 25.46 v -9.71 H 225.4 Z"
           id="path1001" />
        <path
           d="m 286,203 h -27.51 a 1,1 0 0 1 -1,-1 v -11.71 a 1,1 0 0 1 1,-1 H 286 a 1,1 0 0 1 1,1 V 202 a 1,1 0 0 1 -1,1 z m -26.46,-2 H 285 v -9.71 h -25.51 z"
           id="path1003" />
      </g>
    </g>
  </g>
</svg>
