<?xml version="1.0" encoding="UTF-8" standalone="no"?>
<svg
   viewBox="0 0 37.350624 40"
   version="1.1"
   id="svg6"
   sodipodi:docname="icon.svg"
   width="37.350624"
   height="40"
   inkscape:version="1.2 (dc2aeda, 2022-05-15)"
   xmlns:inkscape="http://www.inkscape.org/namespaces/inkscape"
   xmlns:sodipodi="http://sodipodi.sourceforge.net/DTD/sodipodi-0.dtd"
   xmlns="http://www.w3.org/2000/svg"
   xmlns:svg="http://www.w3.org/2000/svg">
  <defs
     id="defs10" />
  <sodipodi:namedview
     id="namedview8"
     pagecolor="#ffffff"
     bordercolor="#666666"
     borderopacity="1.0"
     inkscape:showpageshadow="2"
     inkscape:pageopacity="0.0"
     inkscape:pagecheckerboard="0"
     inkscape:deskcolor="#d1d1d1"
     showgrid="false"
     inkscape:zoom="2.4583333"
     inkscape:cx="-27.457627"
     inkscape:cy="-47.186441"
     inkscape:window-width="1792"
     inkscape:window-height="980"
     inkscape:window-x="0"
     inkscape:window-y="25"
     inkscape:window-maximized="1"
     inkscape:current-layer="svg6" />
  <path
     d="m 32.740494,8 v 32 h -22 A 6,6 0 0 1 4.7404945,34 V 0 H 24.740494 Z"
     fill="#edebf2"
     id="path2" />
  <path
     d="m 32.740494,8 h -8 V 0 Z m -5,11 H 7.7404945 a 1,1 0 0 1 0,-2 H 27.740494 a 1,1 0 0 1 0,2 z m 0,-5 H 7.7404945 a 1,1 0 0 1 0,-2 H 27.740494 a 1,1 0 0 1 0,2 z m 0,10 H 7.7404945 a 1,1 0 0 1 0,-2 H 27.740494 a 1,1 0 0 1 0,2 z m 0,5 H 7.7404945 a 1,1 0 0 1 0,-2 H 27.740494 a 1,1 0 0 1 0,2 z m -10,5 H 7.7404945 a 1,1 0 0 1 0,-2 h 9.9999995 a 1,1 0 0 1 0,2 z"
     fill="#c6c3d8"
     id="path4" />
  <rect
     style="fill:#da5669;fill-opacity:1;fill-rule:evenodd;stroke:#da5669;stroke-width:1.45975;stroke-linecap:round;stroke-linejoin:round;stroke-dasharray:none;stroke-opacity:1"
     id="rect174"
     width="35.890873"
     height="0.84401238"
     x="0.72987503"
     y="22.077742"
     ry="0" />
  <rect
     style="fill:#da5669;fill-opacity:0.196891;fill-rule:evenodd;stroke:none;stroke-width:2.12622;stroke-linecap:round;stroke-linejoin:round;stroke-dasharray:none;stroke-opacity:0.523316"
     id="rect2518"
     width="28.056034"
     height="7.2469821"
     x="4.6472945"
     y="23.359877" />
</svg>
