<?xml version="1.0" encoding="UTF-8" standalone="no"?>
<svg
   viewBox="0 0 34.512051 40.063583"
   version="1.1"
   id="svg6"
   sodipodi:docname="documentscanner-icon-monochrome.svg"
   width="34.512051"
   height="40.063583"
   inkscape:version="1.1.2 (0a00cf5339, 2022-02-04)"
   xmlns:inkscape="http://www.inkscape.org/namespaces/inkscape"
   xmlns:sodipodi="http://sodipodi.sourceforge.net/DTD/sodipodi-0.dtd"
   xmlns="http://www.w3.org/2000/svg"
   xmlns:svg="http://www.w3.org/2000/svg">
  <defs
     id="defs10" />
  <sodipodi:namedview
     id="namedview8"
     pagecolor="#ffffff"
     bordercolor="#666666"
     borderopacity="1.0"
     inkscape:showpageshadow="2"
     inkscape:pageopacity="0.0"
     inkscape:pagecheckerboard="0"
     inkscape:deskcolor="#d1d1d1"
     showgrid="false"
     inkscape:zoom="27.812866"
     inkscape:cx="9.1863959"
     inkscape:cy="20.691862"
     inkscape:window-width="1920"
     inkscape:window-height="999"
     inkscape:window-x="0"
     inkscape:window-y="0"
     inkscape:window-maximized="1"
     inkscape:current-layer="g15261"
     inkscape:pageshadow="2"
     fit-margin-top="0"
     fit-margin-left="0"
     fit-margin-right="0"
     fit-margin-bottom="0" />
  <g
     id="g15261"
     transform="matrix(0.7325497,0,0,0.76637747,3.3761068,4.3068371)">
    <path
       d="M 26.738258,13.819271 V 31.684015 H 14.456247 a 3.3496395,3.3496395 0 0 1 -3.349639,-3.34964 V 9.3530854 h 11.165464 z"
       fill="#edebf2"
       id="path2"
       style="fill:none;fill-opacity:0.588235;stroke:#000000;stroke-width:1.65093429;stroke-linecap:round;stroke-linejoin:round;stroke-miterlimit:4;stroke-dasharray:none;stroke-opacity:1" />
    <path
       d="m 26.207748,14.433276 h -4.074423 v -4.074422 z m -2.546514,5.602332 H 13.475177 a 0.50930312,0.50930312 0 0 1 0,-1.018606 h 10.186057 a 0.50930312,0.50930312 0 0 1 0,1.018606 z m 0,-2.546515 H 13.475177 a 0.5093029,0.5093029 0 0 1 0,-1.018605 h 10.186057 a 0.5093029,0.5093029 0 0 1 0,1.018605 z m 0,5.09303 H 13.475177 a 0.5093035,0.5093035 0 0 1 0,-1.018607 h 10.186057 a 0.5093035,0.5093035 0 0 1 0,1.018607 z m 0,2.546514 H 13.475177 a 0.509303,0.509303 0 0 1 0,-1.018606 h 10.186057 a 0.509303,0.509303 0 0 1 0,1.018606 z m -5.093029,2.546514 h -5.093028 a 0.5093029,0.5093029 0 0 1 0,-1.018605 h 5.093028 a 0.5093029,0.5093029 0 0 1 0,1.018605 z"
       fill="#c6c3d8"
       id="path4"
       style="fill:#000000;fill-opacity:1;stroke:#000000;stroke-width:0;stroke-linecap:round;stroke-linejoin:round;stroke-miterlimit:4;stroke-dasharray:none;stroke-opacity:1" />
    <rect
       style="fill:#da5669;fill-opacity:1;fill-rule:evenodd;stroke:#000000;stroke-width:1.09422;stroke-linecap:round;stroke-linejoin:round;stroke-miterlimit:4;stroke-dasharray:none;stroke-opacity:1"
       id="rect174"
       width="20.036915"
       height="0.47118953"
       x="8.9289513"
       y="21.923958"
       ry="0" />
  </g>
</svg>
