<?xml version="1.0" encoding="UTF-8" standalone="no"?>
<!-- Created with Inkscape (http://www.inkscape.org/) -->

<svg
   width="1024"
   height="1024"
   viewBox="0 0 270.93333 270.93334"
   version="1.1"
   id="svg914"
   inkscape:export-filename="/home/mguillon/icon_cardwallet.png"
   inkscape:export-xdpi="48.000004"
   inkscape:export-ydpi="48.000004"
   inkscape:version="1.1.2 (0a00cf5339, 2022-02-04)"
   sodipodi:docname="icon_cardwallet_monochrom.svg"
   xmlns:inkscape="http://www.inkscape.org/namespaces/inkscape"
   xmlns:sodipodi="http://sodipodi.sourceforge.net/DTD/sodipodi-0.dtd"
   xmlns="http://www.w3.org/2000/svg"
   xmlns:svg="http://www.w3.org/2000/svg">
  <sodipodi:namedview
     id="namedview916"
     pagecolor="#ffffff"
     bordercolor="#666666"
     borderopacity="1.0"
     inkscape:pageshadow="2"
     inkscape:pageopacity="0.0"
     inkscape:pagecheckerboard="0"
     inkscape:document-units="mm"
     showgrid="false"
     units="px"
     fit-margin-top="0"
     fit-margin-left="0"
     fit-margin-right="0"
     fit-margin-bottom="0"
     inkscape:zoom="0.24258858"
     inkscape:cx="321.53204"
     inkscape:cy="702.83606"
     inkscape:window-width="915"
     inkscape:window-height="807"
     inkscape:window-x="207"
     inkscape:window-y="174"
     inkscape:window-maximized="0"
     inkscape:current-layer="layer1" />
  <defs
     id="defs911" />
  <g
     inkscape:label="Layer 1"
     inkscape:groupmode="layer"
     id="layer1"
     transform="translate(-0.26636589,-0.37015253)">
    <g
       id="g1029"
       transform="matrix(0.71972327,0,0,0.71972327,14.421837,39.134487)">
      <g
         id="g3952"
         transform="matrix(0.79975612,0,0,0.79975612,20.454471,19.827921)">
        <path
           id="path989"
           style="stroke-width:1"
           d="m 130.78279,116.45431 c -5.7339,0 -10.35032,4.61587 -10.35032,10.34977 v 85.08038 c 0,5.7339 4.61642,10.34977 10.35032,10.34977 h 144.61993 c 5.7339,0 10.34977,-4.61587 10.34977,-10.34977 v -85.08038 c 0,-5.7339 -4.61587,-10.34977 -10.34977,-10.34977 z m 102.49365,20.85076 c 3.51705,-0.0911 6.9127,1.28899 9.36905,3.80778 8.07548,-7.52173 21.23561,-1.79688 21.23827,9.23896 -0.0111,6.96671 -5.65306,12.61311 -12.61976,12.62976 -3.41062,0.003 -6.67735,-1.3741 -9.05716,-3.81722 -2.3305,2.17225 -5.39483,3.38515 -8.5807,3.39636 -6.91432,0.0101 -12.55144,-5.54147 -12.64717,-12.45512 -0.0957,-6.91366 5.38552,-12.61913 12.29747,-12.80052 z m -91.51842,2.54352 11.10977,0.04 c 2.76145,1.3e-4 4.99993,2.23886 4.99976,5.00031 v 11.10977 c -1.3e-4,2.76124 -2.23852,4.99963 -4.99976,4.99976 h -11.10977 c -2.78097,0.028 -5.05036,-2.21865 -5.05035,-4.99976 v -11.1498 c -3.1e-4,-2.78133 2.26916,-5.02832 5.05035,-5.00031 z m -6.05052,45.74003 h 27.47003 c 0.55242,-1e-4 1.00027,0.44775 1.00018,1.00017 V 198.299 c -2.1e-4,0.55221 -0.44797,0.99972 -1.00018,0.99962 H 135.7075 c -0.55199,-2.1e-4 -0.99941,-0.44763 -0.99962,-0.99962 v -11.71021 c -9e-5,-0.5522 0.44742,-0.99996 0.99962,-1.00017 z m 34.09042,0 h 27.47003 c 0.5522,2.1e-4 0.99971,0.44797 0.99962,1.00017 V 198.299 c -2.1e-4,0.55199 -0.44763,0.99941 -0.99962,0.99962 h -27.47003 c -0.55221,1e-4 -0.99997,-0.44741 -1.00018,-0.99962 v -11.71021 c -9e-5,-0.55242 0.44776,-1.00027 1.00018,-1.00017 z m 34.08986,0 h 27.46003 c 0.55242,-1e-4 1.00027,0.44775 1.00017,1.00017 V 198.299 c -2.1e-4,0.5522 -0.44797,0.99972 -1.00017,0.99962 h -27.46003 c -0.55221,1e-4 -0.99997,-0.44741 -1.00018,-0.99962 v -11.71021 c -9e-5,-0.55242 0.44776,-1.00027 1.00018,-1.00017 z m 34.08986,0 h 27.51007 c 0.55242,-1e-4 1.00027,0.44775 1.00017,1.00017 V 198.299 c -2.1e-4,0.5522 -0.44797,0.99972 -1.00017,0.99962 h -27.51007 c -0.5522,1e-4 -0.99996,-0.44742 -1.00017,-0.99962 v -11.71021 c -9e-5,-0.55242 0.44776,-1.00027 1.00017,-1.00017 z"
           sodipodi:nodetypes="sssssssssccccccscccccccscsccccccccccccccccccccccccccccccccccccc" />
        <path
           id="rect975"
           style="stroke-width:1"
           d="m 235.54754,64.18841 c -0.68855,0.01926 -1.38624,0.107624 -2.0843,0.270197 L 92.612193,97.261975 c -5.584475,1.300573 -9.032892,6.843475 -7.732317,12.427885 l 19.297954,82.8621 c 1.30058,5.58445 6.84295,9.03343 12.4274,7.73286 l 19.10227,-4.4488 v -66.0554 L 92.178526,139.91801 87.408383,119.43641 248.17453,81.995286 245.8912,72.191469 c -1.13801,-4.886397 -5.5238,-8.137876 -10.34366,-8.003059 z m 12.62699,17.806876 4.77014,20.482144 0.24463,-0.0573 -4.77015,-20.482144 z m 4.77014,20.482144 -61.82008,14.39711 h 65.17308 z" />
      </g>
    </g>
  </g>
</svg>
